<svg xmlns="http://www.w3.org/2000/svg" xmlns:xlink="http://www.w3.org/1999/xlink" width="16" height="16" version="1.1" viewBox="0 0 16 16"><title>pivot</title><desc>Created with Sketch.</desc><g id="Icons" fill="none" fill-rule="evenodd" stroke="none" stroke-width="1"><g id="pivot" stroke="#000"><path id="Line" stroke-linecap="square" d="M13.5,4.5 L4.5,4.5"/><path id="Line-2" stroke-linecap="square" d="M4.5,4.5 L4.5,13.5"/><polyline id="Path-12" points="7.5 12.5 6.5 11.5 7.5 10.5"/><polyline id="Path-13" points="12.5 7.5 11.5 6.5 10.5 7.5"/><path id="Line-3-Copy" stroke-linecap="square" d="M4.5,11.5 L2.5,11.5"/><path id="Line-3" stroke-linecap="square" d="M8.5,2.5 L8.5,4.5"/><path id="Line-3-Copy-5" stroke-linecap="square" d="M5.5,2.5 L5.5,4.5"/><path id="Line-3-Copy-3" stroke-linecap="square" d="M11.5,2.5 L11.5,4.5"/><path id="Path-15" d="M11.5,6.5 L11.5,9.5 C11.5,10.6045695 10.6045695,11.5 9.5,11.5 L6.5,11.5"/><path id="Line-3" stroke-linecap="square" d="M4.5,8.5 L2.5,8.5"/><path id="Line-3-Copy-2" stroke-linecap="square" d="M4.5,5.5 L2.5,5.5"/><rect id="Rectangle" width="13" height="13" x="1.5" y="1.5" rx="2"/></g></g></svg>