<svg xmlns="http://www.w3.org/2000/svg" xmlns:xlink="http://www.w3.org/1999/xlink" width="12" height="12" version="1.1" viewBox="0 0 12 12"><title>indeterminate</title><desc>Created with Sketch.</desc><g id="Icons" fill="none" fill-rule="evenodd" stroke="none" stroke-width="1"><g id="indeterminate"><path id="Combined-Shape" fill="#000" d="M3.05624981,4.5811608 C3.32688669,5.95988017 4.54197684,7 6,7 C7.45802316,7 8.67311331,5.95988017 8.94375019,4.5811608 C8.05936026,4.19372027 7.0781102,4 6,4 C4.9218898,4 3.94063974,4.19372027 3.05624981,4.5811608 Z"/><path id="Path-7" stroke="#979797" d="M4,5.5 C4.66666667,5.16666667 5.66666667,5 7,5"/><path id="Path-6-Copy" stroke="#000" d="M1,6 C2.33333333,4.66666667 4,4 6,4 C8,4 9.66666667,4.66666667 11,6 C9.66666667,7.33333333 8,8 6,8 C4,8 2.33333333,7.33333333 1,6 Z"/></g></g></svg>