<svg xmlns="http://www.w3.org/2000/svg" xmlns:xlink="http://www.w3.org/1999/xlink" width="12" height="12" version="1.1" viewBox="0 0 12 12"><title>loading</title><desc>Created with Sketch.</desc><defs><rect id="path-1" width="2" height="3" x="5" y="1"/><rect id="path-2" width="2" height="3" x="5" y="8"/><rect id="path-3" width="3" height="2" x="1" y="5"/><rect id="path-4" width="3" height="2" x="8" y="5"/><rect id="path-5" width="2" height="3" x="4" y="0"/><rect id="path-6" width="2" height="3" x="4" y="7"/><rect id="path-7" width="3" height="2" x="0" y="4"/><rect id="path-8" width="3" height="2" x="7" y="4"/></defs><g id="Icons" fill="none" fill-rule="evenodd" stroke="none" stroke-width="1"><g id="loading"><g id="Rectangle-18"><use fill="#D8D8D8" fill-rule="evenodd" xlink:href="#path-1"/><rect width="1" height="2" x="5.5" y="1.5" stroke="#979797" stroke-width="1"/></g><g id="Rectangle-18-Copy"><use fill="#D8D8D8" fill-rule="evenodd" xlink:href="#path-2"/><rect width="1" height="2" x="5.5" y="8.5" stroke="#979797" stroke-width="1"/></g><g id="Rectangle-19"><use fill="#D8D8D8" fill-rule="evenodd" xlink:href="#path-3"/><rect width="2" height="1" x="1.5" y="5.5" stroke="#979797" stroke-width="1"/></g><g id="Rectangle-19-Copy"><use fill="#D8D8D8" fill-rule="evenodd" xlink:href="#path-4"/><rect width="2" height="1" x="8.5" y="5.5" stroke="#979797" stroke-width="1"/></g><g id="Group" opacity=".714" transform="translate(6.000000, 6.000000) rotate(45.000000) translate(-6.000000, -6.000000) translate(1.000000, 1.000000)"><g id="Rectangle-18-Copy-3"><use fill="#D8D8D8" fill-rule="evenodd" xlink:href="#path-5"/><rect width="1" height="2" x="4.5" y=".5" stroke="#979797" stroke-width="1"/></g><g id="Rectangle-18-Copy-2"><use fill="#D8D8D8" fill-rule="evenodd" xlink:href="#path-6"/><rect width="1" height="2" x="4.5" y="7.5" stroke="#979797" stroke-width="1"/></g><g id="Rectangle-19-Copy-3"><use fill="#D8D8D8" fill-rule="evenodd" xlink:href="#path-7"/><rect width="2" height="1" x=".5" y="4.5" stroke="#979797" stroke-width="1"/></g><g id="Rectangle-19-Copy-2"><use fill="#D8D8D8" fill-rule="evenodd" xlink:href="#path-8"/><rect width="2" height="1" x="7.5" y="4.5" stroke="#979797" stroke-width="1"/></g></g></g></g></svg>